<?xml version="1.0" encoding="UTF-8" standalone="no"?><svg xmlns="http://www.w3.org/2000/svg" xmlns:xlink="http://www.w3.org/1999/xlink" contentScriptType="application/ecmascript" contentStyleType="text/css" height="748.9583px" preserveAspectRatio="none" style="width:582px;height:748px;background:#00000000;" version="1.1" viewBox="0 0 582 748" width="582.2917px" zoomAndPan="magnify"><defs><linearGradient id="g15bskgj04y6bg0" x1="50%" x2="50%" y1="0%" y2="100%"><stop offset="0%" stop-color="#F2FCFE"/><stop offset="100%" stop-color="#EEEEEE"/></linearGradient></defs><g><!--MD5=[07cc3071f6714aa967cdc47c9008222b]
cluster Emacs--><path d="M10.4167,153.125 L58.3333,153.125 A6.25,6.25 0 0 1 62.5,157.2917 L69.7917,191.8559 L361.4583,191.8559 A4.1667,4.1667 0 0 1 365.625,196.0225 L365.625,281.25 A4.1667,4.1667 0 0 1 361.4583,285.4167 L10.4167,285.4167 A4.1667,4.1667 0 0 1 6.25,281.25 L6.25,157.2917 A4.1667,4.1667 0 0 1 10.4167,153.125 " fill="#555555" style="stroke: #333333; stroke-width: 2.0833333333333335;"/><path d="M6.25,191.8559 L6.25,192.1478 L16.8403,191.2804 L27.4306,192.1243 L38.0208,192.411 L48.6111,190.865 L59.2014,191.7479 L69.7917,191.8559 " fill="#555555" style="stroke: #333333; stroke-width: 2.0833333333333335;"/><text fill="#333333" font-family="Segoe Print" font-size="12.5" font-weight="bold" lengthAdjust="spacingAndGlyphs" textLength="39.5833" x="15.625" y="176.2919">Emacs</text><!--MD5=[517c5de6460c73f5bf4ff3ce22194c4b]
cluster Apache HTTP Server (httpd)--><polygon fill="#555555" points="163.5417,330.2083,163.5933,330.2599,165.5233,328.0233,167.7558,326.0891,169.8898,324.0565,171.6998,321.6998,173.9583,319.7917,173.9583,319.7107,184.3452,319.3474,194.7321,319.3922,205.119,319.7207,215.506,319.0715,225.8929,320.3684,236.2798,319.1351,246.6667,319.5857,257.0536,320.2416,267.4405,319.7023,277.8274,319.8627,288.2143,319.7584,298.6012,319.9776,308.9881,320.0408,319.375,320.4018,329.7619,320.4907,340.1488,320.4992,350.5357,320.0569,360.9226,320.2746,371.3095,320.5232,381.6964,319.0404,392.0833,320.4984,402.4702,319.4828,412.8571,320.3477,423.244,319.276,433.631,319.7203,444.0179,320.5642,454.4048,319.7409,464.7917,319.9014,475.1786,320.1444,485.5655,320.2252,495.9524,319.7876,506.3393,320.0908,516.7262,319.1954,527.1131,320.0879,537.5,319.7917,538.071,319.7917,537.9631,330.3819,538.1386,340.9722,536.9968,351.5625,536.8206,362.1528,536.8527,372.7431,537.4387,383.3333,537.2953,393.9236,538.2098,404.5139,537.318,415.1042,537.1427,425.6944,537.7378,436.2847,536.8054,446.875,536.9592,457.4653,538.176,468.0556,537.9538,478.6458,538.2651,489.2361,537.1648,499.8264,537.8325,510.4167,538.115,521.0069,537.0079,531.5972,537.4001,542.1875,537.6312,552.7778,538.1789,563.3681,537.5,573.9583,537.499,573.9573,535.5302,576.1552,533.1974,577.989,531.0837,580.0421,529.2903,582.4153,527.0833,584.375,527.0833,583.6282,516.6964,584.9052,506.3095,584.5902,495.9226,584.0959,485.5357,584.0065,475.1488,584.8529,464.7619,584.0632,454.375,584.9915,443.9881,583.7992,433.6012,585.0182,423.2143,584.8795,412.8274,584.6302,402.4405,584.4242,392.0536,585.1319,381.6667,585.0141,371.2798,584.5513,360.8929,584.6544,350.506,584.2393,340.119,585.1213,329.7321,584.5363,319.3452,584.5548,308.9583,583.7413,298.5714,583.9529,288.1845,584.9279,277.7976,584.8227,267.4107,584.3303,257.0238,584.0394,246.6369,584.1469,236.25,583.6602,225.8631,584.807,215.4762,585.1454,205.0893,584.9233,194.7024,585.0989,184.3155,584.2326,173.9286,584.4659,163.5417,584.375,163.1379,584.375,163.8375,573.7847,163.7987,563.1944,164.1171,552.6042,163.3024,542.0139,163.4017,531.4236,164.0036,520.8333,164.1326,510.2431,163.0078,499.6528,163.3397,489.0625,163.6971,478.4722,162.9054,467.8819,163.9098,457.2917,163.8104,446.7014,163.4367,436.1111,163.6898,425.5208,164.3007,414.9306,163.2158,404.3403,163.8698,393.75,163.8392,383.1597,163.6623,372.5694,163.6885,361.9792,163.6599,351.3889,162.8915,340.7986,163.5417,330.2083" style="stroke: #FFFFFF; stroke-width: 1.5625;"/><path d="M527.0833,330.2083 L527.1521,330.2771 L529.031,327.9894 L531.3133,326.1049 L533.4642,324.0892 L535.1831,321.6415 L537.5,319.7917 " fill="#555555" style="stroke: #FFFFFF; stroke-width: 1.5625;"/><path d="M163.5417,330.2083 L163.5417,330.5003 L173.9286,329.6329 L184.3155,330.4768 L194.7024,330.7634 L205.0893,329.2175 L215.4762,330.1004 L225.8631,329.616 L236.25,329.6757 L246.6369,330.1137 L257.0238,329.2481 L267.4107,330.9773 L277.7976,329.3329 L288.1845,329.9337 L298.5714,330.8083 L308.9583,330.0892 L319.3452,330.3031 L329.7321,330.164 L340.119,330.4563 L350.506,330.5405 L360.8929,331.0218 L371.2798,331.1404 L381.6667,331.1517 L392.0536,330.562 L402.4405,330.8522 L412.8274,331.1837 L423.2143,329.2067 L433.6012,331.1507 L443.9881,329.7965 L454.375,330.9497 L464.7619,329.5208 L475.1488,330.1132 L485.5357,331.2383 L495.9226,330.1406 L506.3095,330.3546 L516.6964,330.6786 L527.0833,330.2083 " fill="#555555" style="stroke: #FFFFFF; stroke-width: 1.5625;"/><path d="M527.0833,330.2083 L527.3753,330.2083 L526.5079,340.7986 L527.3518,351.3889 L527.6384,361.9792 L526.0925,372.5694 L526.9754,383.1597 L526.491,393.75 L526.5507,404.3403 L526.9887,414.9306 L526.1231,425.5208 L527.8523,436.1111 L526.2079,446.7014 L526.8087,457.2917 L527.6833,467.8819 L526.9642,478.4722 L527.1781,489.0625 L527.039,499.6528 L527.3313,510.2431 L527.4155,520.8333 L527.8968,531.4236 L528.0154,542.0139 L528.0267,552.6042 L527.437,563.1944 L527.7272,573.7847 L527.0833,584.375 " fill="#555555" style="stroke: #FFFFFF; stroke-width: 1.5625;"/><text fill="#FFFFFF" font-family="Segoe Print" font-size="12.5" font-weight="bold" lengthAdjust="spacingAndGlyphs" textLength="182.2917" x="255.2083" y="354.4169">Apache HTTP Server (httpd)</text><path d="M291.947,628.9553 L291.947,628.9553 L291.9616,629.0515 L295.4625,628.2271 L299.0491,627.9667 L302.6077,627.5227 L306.0746,626.4747 L309.6685,626.2627 L309.6685,626.2627 L309.6651,626.2269 L312.3852,625.8069 L315.1224,625.5675 L317.8715,625.4537 L320.5796,624.9072 L323.3451,624.9666 L323.3451,624.9666 L323.3776,625.2209 L326.768,624.2346 L330.2534,623.9906 L333.7504,623.8372 L337.1799,623.1568 L340.6449,622.7536 L340.6449,622.7536 L340.6508,622.7846 L343.4731,622.2053 L346.3221,621.7673 L349.1583,621.2611 L352.0189,620.885 L354.7996,620.0848 L354.7996,620.0848 L354.8404,620.3928 L358.0943,619.9659 L361.322,619.3403 L364.5881,619.0055 L367.8561,618.6844 L371.0668,617.9314 L371.0668,617.9314 L371.0356,617.599 L373.8292,617.9871 L376.5198,617.2807 L379.2888,617.4065 L381.9771,616.6753 L384.7315,616.6465 L384.7315,616.6465 L384.7288,616.6149 L388.1124,617.2718 L391.4336,617.1904 L394.7916,617.5447 L398.1527,617.9356 L401.4915,618.0626 L401.4915,618.0626 L401.5212,618.253 L404.4003,618.5134 L407.33,619.0991 L410.1778,619.1584 L413.1477,620.0029 L416.0365,620.3253 L416.0365,620.3253 L416.0869,620.5741 L419.2594,621.1725 L422.4568,621.8945 L425.5379,622.0426 L428.7043,622.6114 L431.9463,623.5528 L431.9463,623.5528 L431.9222,623.2661 L434.8076,623.7661 L437.6658,623.943 L440.5634,624.5884 L443.3938,624.4339 L446.2642,624.7549 L446.2642,624.7549 L446.2381,624.5982 L449.5108,625.3959 L452.6722,625.5238 L455.9128,626.128 L459.2308,627.1983 L462.4108,627.4386 L462.4108,627.4386 L462.4743,627.6301 L465.2159,626.8668 L467.7599,625.508 L470.5513,624.8951 L473.2888,624.1196 L475.9008,622.9656 L475.7252,622.8352 L477.56,625.221 L479.3373,627.5641 L481.2276,629.9911 L482.6786,632.092 L484.375,634.375 L484.375,634.375 L484.527,634.5259 L484.5754,634.5797 L484.9172,634.9247 L485.6876,635.6951 L485.6689,635.6824 L486.2869,636.3015 L486.2869,636.3015 L486.5212,636.3267 L486.6723,639.0102 L486.7441,641.6851 L486.9948,644.3794 L487.6591,647.118 L487.7382,649.7938 L487.7382,649.7938 L487.6093,649.7429 L488.9067,652.2079 L489.3276,654.3267 L490.7452,656.8392 L491.6015,659.13 L492.3067,661.3611 L492.3067,661.3611 L492.4177,661.3845 L492.9639,664.3766 L493.9074,667.4527 L494.492,670.4529 L494.9266,673.4215 L495.4857,676.4163 L495.4857,676.4163 L495.6052,676.45 L494.784,678.682 L494.5177,681.0705 L493.6238,683.2819 L492.9881,685.5662 L492.2675,687.8266 L492.2675,687.8266 L491.9935,687.7614 L491.3637,690.8168 L491.064,693.9507 L490.2973,696.9735 L489.3631,699.9565 L488.6612,702.9947 L488.6612,702.9947 L488.512,702.9923 L488.6021,705.5558 L488.4281,708.115 L488.9799,710.6861 L489.1725,713.2513 L488.8725,715.8084 L488.968,716.0326 L486.6408,717.1093 L484.132,717.7601 L481.8148,718.8605 L479.3708,719.6633 L477.0833,720.8333 L477.0833,720.8333 L477.1708,720.9315 L477.5852,721.298 L478.1052,721.783 L478.2903,721.892 L478.7455,722.3043 L479.2128,722.7301 L479.2128,722.7301 L479.2463,722.9327 L476.1496,723.5022 L472.9622,723.522 L469.8802,724.1805 L466.8001,724.8502 L463.6829,725.295 L463.6829,725.295 L463.6779,725.0123 L460.5991,725.5125 L457.5118,725.5222 L454.4223,725.41 L451.3377,725.5764 L448.25,725.5644 L448.25,725.5644 L448.2719,725.901 L444.7717,725.6459 L441.3217,726.162 L437.8519,726.3745 L434.3779,726.522 L430.9055,726.6945 L430.9055,726.6945 L430.9201,726.7581 L428.2644,727.3532 L425.5353,727.6278 L422.9055,728.336 L420.2464,728.9161 L417.6413,729.7318 L417.6413,729.7318 L417.6459,729.761 L414.6248,730.2521 L411.6074,730.7657 L408.5517,731.0386 L405.5451,731.6207 L402.5272,732.1315 L402.5272,732.1315 L402.5221,732.0761 L399.0745,732.7168 L395.5911,732.9669 L392.0754,732.8658 L388.6158,733.3754 L385.1419,733.7284 L385.1419,733.7284 L385.1031,733.464 L382.2081,733.428 L379.2765,733.1421 L376.3191,732.6803 L373.3002,731.7988 L370.3763,731.5658 L370.3763,731.5658 L370.3986,731.7794 L367.4043,730.9178 L364.5132,731.0461 L361.5528,730.5102 L358.6355,730.3867 L355.6945,730.0362 L355.6945,730.0362 L355.7166,730.1453 L352.3199,729.556 L348.792,728.3207 L345.4842,728.1686 L342.0387,727.3393 L338.6043,726.5641 L338.6043,726.5641 L338.6156,726.7282 L335.6907,726.7062 L332.7295,726.1601 L329.7974,726.0353 L326.8611,725.8497 L323.9168,725.5479 L323.9168,725.5479 L323.9283,725.6385 L320.7424,725.1443 L317.6096,725.0677 L314.3582,724.058 L311.2525,724.1944 L308.0452,723.5314 L308.0452,723.5314 L307.9712,723.2522 L304.8417,724.1208 L301.7711,725.2116 L298.6303,726.0375 L295.4292,726.6354 L292.3482,727.6871 L292.515,727.7811 L290.7974,724.8828 L289.452,722.1941 L287.8333,719.3515 L285.7888,716.2689 L284.375,713.5417 L284.375,713.5417 L284.2173,713.4465 L284.6347,714.026 L285.1378,714.6571 L285.4676,715.1837 L285.7382,715.6746 L285.9297,716.1177 L285.9297,716.1177 L285.7806,716.0646 L285.1436,713.2333 L284.0788,710.2495 L282.7182,707.1602 L281.5709,704.1469 L280.6115,701.2007 L280.6115,701.2007 L280.4306,701.1584 L279.8678,698.413 L279.3795,695.685 L278.6398,692.8983 L277.8353,690.0963 L277.3766,687.3753 L277.3766,687.3753 L277.5934,687.4378 L276.4034,684.6478 L276.062,682.1024 L275.2595,679.4241 L274.4658,676.7484 L273.5313,674.0321 L273.5313,674.0321 L273.83,674.1484 L274.4141,671.4524 L275.3793,668.9048 L276.7216,666.5042 L277.2291,663.7784 L278.4754,661.3403 L278.4754,661.3403 L278.369,661.3201 L279.0479,658.6129 L279.5465,655.8714 L279.8721,653.0971 L280.5355,650.387 L281.0749,647.6533 L281.0749,647.6533 L281.416,647.7035 L280.9575,644.8812 L279.9728,641.9815 L279.8674,639.2112 L279.1816,636.3554 L279.0025,633.5742 L278.9969,633.5634 L281.5972,632.3968 L284.1568,631.1509 L286.4606,629.4058 L289.2184,628.5465 L291.6667,627.0833 L291.6667,627.0833 L291.6705,627.0839 L291.4685,627.4196 L291.5631,627.7998 L291.9844,628.2289 L292.0053,628.598 L291.947,628.9553 " fill="url(#g15bskgj04y6bg0)" style="stroke: #F2FCFE; stroke-width: 1.5625;"/><!--MD5=[1bb2ccbfc15d76a8e9b587af0e8987e2]
entity Emdeez UI--><polygon fill="#474747" points="27.0833,205.2083,27.0833,205.4273,37.1212,204.7767,47.1591,205.4097,57.197,205.6247,67.2348,204.4652,77.2727,205.1274,87.3106,204.7641,97.3485,204.8089,107.3864,205.1373,117.4242,204.4882,127.4621,205.785,137.5,205.2083,137.4163,205.0061,138.063,205.389,138.7359,205.8351,139.2564,205.913,139.8661,206.2065,140.4463,206.4287,140.436,206.4245,140.7476,207.0417,141.0111,207.639,141.3664,208.2743,141.6379,208.8749,141.6667,209.375,142.3742,209.375,141.9319,220.4545,142.1496,231.534,142.3982,242.6135,140.9154,253.693,141.6667,264.7725,141.8843,264.8627,141.3275,265.3224,141.3498,266.022,140.7756,266.4745,140.6684,267.1205,140.4463,267.7188,140.5448,267.9567,139.8505,267.9473,139.2818,268.2408,138.7235,268.5597,138.1446,268.8287,137.5,268.9392,137.5,268.9351,127.4621,269.2384,117.4242,268.3429,107.3864,269.2354,97.3485,269.5102,87.3106,269.4023,77.2727,269.5778,67.2348,268.436,57.197,268.2599,47.1591,268.2919,37.1212,268.8779,27.0833,268.9392,27.0572,268.8762,26.5846,268.9137,25.8816,268.395,25.27,268.0969,24.7566,268.0361,24.1371,267.7188,23.9231,267.6302,23.7264,267.0606,23.8571,266.6265,23.5446,266.0089,23.3964,265.4594,22.9167,264.7725,22.5815,264.7725,23.2492,253.693,23.5317,242.6135,22.4246,231.534,22.8168,220.4545,22.9167,209.375,22.9571,209.3917,23.3698,208.8723,23.4035,208.1959,23.7973,207.6687,23.7153,206.9444,24.1371,206.4287,24.0471,206.2115,24.7932,206.3462,25.2203,205.7106,25.9725,205.8598,26.5215,205.5187,27.0833,205.2083" style="stroke: #333333; stroke-width: 1.5625;"/><polygon fill="#474747" points="120.8333,210.4167,120.8333,210.4896,123.9583,210.2728,127.0833,210.4838,130.2083,210.5554,133.3333,210.169,136.4583,210.4167,136.4313,210.4167,136.3102,212.5,136.3252,214.5833,136.4347,216.6667,136.2183,218.75,136.4583,220.8333,136.4583,221.0256,133.3333,220.6145,130.2083,220.7647,127.0833,220.9833,123.9583,220.8035,120.8333,220.8333,120.857,220.8333,120.8222,218.75,120.8953,216.6667,120.9164,214.5833,121.0367,212.5,120.8333,210.4167" style="stroke: #333333; stroke-width: 1.5625;"/><polygon fill="#474747" points="118.75,212.5,118.75,212.573,119.5833,212.3561,120.4167,212.5671,121.25,212.6388,122.0833,212.2523,122.9167,212.5,122.8897,212.5,122.7686,212.9167,122.7835,213.3333,122.893,213.75,122.6766,214.1667,122.9167,214.5833,122.9167,214.7756,122.0833,214.3645,121.25,214.5147,120.4167,214.7333,119.5833,214.5535,118.75,214.5833,118.7737,214.5833,118.7389,214.1667,118.812,213.75,118.833,213.3333,118.9534,212.9167,118.75,212.5" style="stroke: #333333; stroke-width: 1.5625;"/><polygon fill="#474747" points="118.75,216.6667,118.75,216.7396,119.5833,216.5228,120.4167,216.7338,121.25,216.8054,122.0833,216.419,122.9167,216.6667,122.8897,216.6667,122.7686,217.0833,122.7835,217.5,122.893,217.9167,122.6766,218.3333,122.9167,218.75,122.9167,218.9422,122.0833,218.5312,121.25,218.6813,120.4167,218.9,119.5833,218.7202,118.75,218.75,118.7737,218.75,118.7389,218.3333,118.812,217.9167,118.833,217.5,118.9534,217.0833,118.75,216.6667" style="stroke: #333333; stroke-width: 1.5625;"/><text fill="#FFFFFF" font-family="Segoe Print" font-size="12.5" lengthAdjust="spacingAndGlyphs" textLength="66.6667" x="43.75" y="247.1252">Emdeez UI</text><!--MD5=[c2fe907430ff39f583f99ebfcd04508a]
entity Emdeez Websocket--><polygon fill="#474747" points="182.8125,205.2083,182.8125,205.4273,192.9036,204.7767,202.9948,205.4097,213.0859,205.6247,223.1771,204.4652,233.2682,205.1274,243.3594,204.7641,253.4505,204.8089,263.5417,205.1373,273.6328,204.4882,283.724,205.785,293.8151,204.5518,303.9063,205.0023,313.9974,205.6583,324.0885,205.119,334.1797,205.2794,344.2708,205.2083,344.2666,205.1981,344.8838,205.5097,345.4811,205.7732,346.1164,206.1285,346.717,206.3999,347.2171,206.4287,347.435,206.519,347.5429,207.0518,347.854,207.6688,348.1746,208.2898,347.9621,208.6899,348.4375,209.375,349.1443,209.375,348.1286,220.4545,348.9936,231.534,347.9219,242.6135,348.3661,253.693,348.4375,264.7725,348.6754,264.8711,348.1778,265.3553,347.9831,265.965,347.8139,266.5853,347.5947,267.1849,347.2171,267.7188,347.2166,267.7176,346.666,268.055,345.9625,268.0233,345.4871,268.5423,344.9329,268.871,344.2708,268.9392,344.2708,269.4023,334.1797,269.5778,324.0885,268.436,313.9974,268.2599,303.9063,268.2919,293.8151,268.8779,283.724,268.7345,273.6328,269.649,263.5417,268.7573,253.4505,268.5819,243.3594,269.177,233.2682,268.2446,223.1771,268.3985,213.0859,269.6152,202.9948,269.393,192.9036,269.7043,182.8125,268.9392,182.7697,268.836,182.2657,268.7975,181.7124,268.6405,180.982,268.0554,180.4427,267.9321,179.8662,267.7188,179.9066,267.7356,179.8312,267.2162,179.3767,266.5398,179.2824,266.0125,178.7123,265.2882,178.6458,264.7725,177.9404,264.7725,179.1704,253.693,177.899,242.6135,179.176,231.534,178.8611,220.4545,178.6458,209.375,178.5599,209.3394,178.7764,208.7387,179.2812,208.2574,179.282,207.5675,179.812,207.0966,179.8662,206.4287,179.7928,206.2514,180.5375,206.3827,181.1091,206.0959,181.6665,205.7751,182.2295,205.4676,182.8125,205.2083" style="stroke: #333333; stroke-width: 1.5625;"/><polygon fill="#474747" points="327.6042,210.4167,327.6042,210.4896,330.7292,210.2728,333.8542,210.4838,336.9792,210.5554,340.1042,210.169,343.2292,210.4167,343.2022,210.4167,343.0811,212.5,343.096,214.5833,343.2055,216.6667,342.9891,218.75,343.2292,220.8333,343.2292,221.0256,340.1042,220.6145,336.9792,220.7647,333.8542,220.9833,330.7292,220.8035,327.6042,220.8333,327.6279,220.8333,327.5931,218.75,327.6662,216.6667,327.6872,214.5833,327.8075,212.5,327.6042,210.4167" style="stroke: #333333; stroke-width: 1.5625;"/><polygon fill="#474747" points="325.5208,212.5,325.5208,212.573,326.3542,212.3561,327.1875,212.5671,328.0208,212.6388,328.8542,212.2523,329.6875,212.5,329.6605,212.5,329.5394,212.9167,329.5543,213.3333,329.6638,213.75,329.4474,214.1667,329.6875,214.5833,329.6875,214.7756,328.8542,214.3645,328.0208,214.5147,327.1875,214.7333,326.3542,214.5535,325.5208,214.5833,325.5445,214.5833,325.5097,214.1667,325.5828,213.75,325.6039,213.3333,325.7242,212.9167,325.5208,212.5" style="stroke: #333333; stroke-width: 1.5625;"/><polygon fill="#474747" points="325.5208,216.6667,325.5208,216.7396,326.3542,216.5228,327.1875,216.7338,328.0208,216.8054,328.8542,216.419,329.6875,216.6667,329.6605,216.6667,329.5394,217.0833,329.5543,217.5,329.6638,217.9167,329.4474,218.3333,329.6875,218.75,329.6875,218.9422,328.8542,218.5312,328.0208,218.6813,327.1875,218.9,326.3542,218.7202,325.5208,218.75,325.5445,218.75,325.5097,218.3333,325.5828,217.9167,325.6039,217.5,325.7242,217.0833,325.5208,216.6667" style="stroke: #333333; stroke-width: 1.5625;"/><text fill="#FFFFFF" font-family="Segoe Print" font-size="12.5" lengthAdjust="spacingAndGlyphs" textLength="117.7083" x="199.4792" y="247.1252">Emdeez Websocket</text><!--MD5=[a557437c1e1cd5068c5decf476ad89c1]
entity Websocket--><polygon fill="#C6303E" points="197.9627,410.8812,196.7412,412.5502,195.2964,414.9949,193.23,416.6423,191.0586,417.5433,189.3273,417.6215,187.102,416.4947,185.0024,415.7587,183.4087,414.2642,182.5728,412.5532,182.077,411.1909,181.5913,409.4115,180.803,407.8803,181.4088,406.3852,181.9395,404.7475,183.9313,403.4523,185.3325,401.7717,187.067,401.2136,189.1289,400.733,191.773,401.0185,193.2213,401.7015,194.9051,402.0111,196.9524,404.1087,197.6661,406.3231,197.9762,407.834,197.625,410.3238" style="stroke: #DC3545; stroke-width: 1.5625;"/><text fill="#555555" font-family="Segoe Print" font-size="12.5" lengthAdjust="spacingAndGlyphs" textLength="64.5833" x="157.2917" y="447.6461">Websocket</text><!--MD5=[e8db1edcb0b7a18921d3c87f7a722550]
entity JS Websocket--><polygon fill="#474747" points="239.5833,377.0833,239.5833,377.3023,250.3472,376.6517,261.1111,377.2847,271.875,377.4997,282.6389,376.3402,293.4028,377.0024,304.1667,376.6391,314.9306,376.6839,325.6944,377.0123,336.4583,376.3632,347.2222,377.66,357.9861,376.4268,368.75,377.0833,368.7237,377.0199,369.3967,377.466,369.9171,377.544,370.5268,377.8375,371.1028,378.0494,371.6963,378.3037,371.7535,378.3274,372.0171,378.9248,372.3723,379.5601,372.6438,380.1607,372.8905,380.751,372.9167,381.25,373.1819,381.25,373.3996,392.3295,373.6482,403.409,372.1654,414.4885,373.6234,425.568,372.9167,436.6475,372.8216,436.6081,372.8438,437.3077,372.2697,437.7603,372.1625,438.4062,372.1783,439.1031,371.6963,439.5938,371.6898,439.5782,371.121,439.8717,370.5628,440.1906,369.9838,440.4596,369.3387,440.5689,368.75,440.8142,368.75,441.1134,357.9861,440.2179,347.2222,441.1104,336.4583,441.3852,325.6944,441.2773,314.9306,441.4528,304.1667,440.311,293.4028,440.1349,282.6389,440.1669,271.875,440.7529,261.1111,440.6095,250.3472,441.524,239.5833,440.8142,239.5601,440.7582,238.9485,440.4601,238.4352,440.3993,237.727,439.8681,237.1573,439.6714,236.6371,439.5938,236.8452,439.6801,236.5327,439.0625,236.3845,438.5129,235.8016,437.7833,235.7631,437.2792,235.4167,436.6475,236.0317,436.6475,234.9246,425.568,235.3168,414.4885,235.5479,403.409,236.0956,392.3295,235.4167,381.25,235.4153,381.2494,235.8091,380.7222,235.7272,379.9979,235.9316,379.3922,236.5545,378.9599,236.6371,378.3037,236.5418,378.0737,237.2939,378.2229,237.843,377.8819,238.3692,377.4855,238.9471,377.2139,239.5833,377.0833" style="stroke: #333333; stroke-width: 1.5625;"/><polygon fill="#474747" points="352.0833,382.2917,352.0833,382.3646,355.2083,382.1478,358.3333,382.3588,361.4583,382.4304,364.5833,382.044,367.7083,382.2917,367.6813,382.2917,367.5602,384.375,367.5752,386.4583,367.6847,388.5417,367.4683,390.625,367.7083,392.7083,367.7083,392.9006,364.5833,392.4895,361.4583,392.6397,358.3333,392.8583,355.2083,392.6785,352.0833,392.7083,352.107,392.7083,352.0722,390.625,352.1453,388.5417,352.1664,386.4583,352.2867,384.375,352.0833,382.2917" style="stroke: #333333; stroke-width: 1.5625;"/><polygon fill="#474747" points="350,384.375,350,384.448,350.8333,384.2311,351.6667,384.4421,352.5,384.5138,353.3333,384.1273,354.1667,384.375,354.1397,384.375,354.0186,384.7917,354.0335,385.2083,354.143,385.625,353.9266,386.0417,354.1667,386.4583,354.1667,386.6506,353.3333,386.2395,352.5,386.3897,351.6667,386.6083,350.8333,386.4285,350,386.4583,350.0237,386.4583,349.9889,386.0417,350.062,385.625,350.083,385.2083,350.2034,384.7917,350,384.375" style="stroke: #333333; stroke-width: 1.5625;"/><polygon fill="#474747" points="350,388.5417,350,388.6146,350.8333,388.3978,351.6667,388.6088,352.5,388.6804,353.3333,388.294,354.1667,388.5417,354.1397,388.5417,354.0186,388.9583,354.0335,389.375,354.143,389.7917,353.9266,390.2083,354.1667,390.625,354.1667,390.8172,353.3333,390.4062,352.5,390.5563,351.6667,390.775,350.8333,390.5952,350,390.625,350.0237,390.625,349.9889,390.2083,350.062,389.7917,350.083,389.375,350.2034,388.9583,350,388.5417" style="stroke: #333333; stroke-width: 1.5625;"/><text fill="#FFFFFF" font-family="Segoe Print" font-size="12.5" lengthAdjust="spacingAndGlyphs" textLength="85.4167" x="256.25" y="419.0002">JS Websocket</text><!--MD5=[ff9ed266c05c24367f3f15166a4d8878]
entity Server UI--><polygon fill="#474747" points="414.0625,377.0833,414.0625,377.3023,424.375,376.6517,434.6875,377.2847,445,377.4997,455.3125,376.3402,465.625,377.0024,475.9375,376.6391,486.25,376.6839,496.5625,377.0123,506.875,376.3632,517.1875,377.0833,517.2611,377.2609,517.693,377.1252,518.3397,377.508,519.0127,377.9541,519.5331,378.0321,520.1338,378.3037,520.1557,378.3128,520.3676,378.8887,520.6792,379.506,520.9427,380.1033,521.298,380.7386,521.3542,381.25,522.0532,381.25,522.0617,392.3295,521.6194,403.409,521.8371,414.4885,522.0857,425.568,521.3542,436.6475,521.1228,436.5517,521.3277,437.327,520.7709,437.7867,520.7932,438.4862,520.2191,438.9388,520.1338,439.5938,520.1247,439.5718,519.6431,440.0758,518.9488,440.0663,518.38,440.3598,517.8218,440.6788,517.1875,440.8142,517.1875,441.2478,506.875,440.8101,496.5625,441.1134,486.25,440.2179,475.9375,441.1104,465.625,441.3852,455.3125,441.2773,445,441.4528,434.6875,440.311,424.375,440.1349,414.0625,440.8142,413.9799,440.6149,413.4654,440.5512,412.8579,440.263,412.3853,440.3006,411.6823,439.7819,411.1162,439.5938,411.0062,439.5482,410.9454,439.0349,410.4142,438.3267,410.2175,437.7571,410.3481,437.323,409.8958,436.6475,410.3497,436.6475,410.6609,425.568,409.5606,414.4885,410.2283,403.409,410.5109,392.3295,409.8958,381.25,409.7443,381.1872,410.1092,380.648,410.4244,380.0882,410.8371,379.5688,410.8708,378.8924,411.1162,378.3037,411.1777,378.4521,411.6319,377.882,412.2047,377.5983,412.9509,377.733,413.378,377.0974,414.0625,377.0833" style="stroke: #333333; stroke-width: 1.5625;"/><polygon fill="#474747" points="500.5208,382.2917,500.5208,382.3646,503.6458,382.1478,506.7708,382.3588,509.8958,382.4304,513.0208,382.044,516.1458,382.2917,516.1188,382.2917,515.9977,384.375,516.0127,386.4583,516.1222,388.5417,515.9058,390.625,516.1458,392.7083,516.1458,392.9006,513.0208,392.4895,509.8958,392.6397,506.7708,392.8583,503.6458,392.6785,500.5208,392.7083,500.5445,392.7083,500.5097,390.625,500.5828,388.5417,500.6039,386.4583,500.7242,384.375,500.5208,382.2917" style="stroke: #333333; stroke-width: 1.5625;"/><polygon fill="#474747" points="498.4375,384.375,498.4375,384.448,499.2708,384.2311,500.1042,384.4421,500.9375,384.5138,501.7708,384.1273,502.6042,384.375,502.5772,384.375,502.4561,384.7917,502.471,385.2083,502.5805,385.625,502.3641,386.0417,502.6042,386.4583,502.6042,386.6506,501.7708,386.2395,500.9375,386.3897,500.1042,386.6083,499.2708,386.4285,498.4375,386.4583,498.4612,386.4583,498.4264,386.0417,498.4995,385.625,498.5205,385.2083,498.6409,384.7917,498.4375,384.375" style="stroke: #333333; stroke-width: 1.5625;"/><polygon fill="#474747" points="498.4375,388.5417,498.4375,388.6146,499.2708,388.3978,500.1042,388.6088,500.9375,388.6804,501.7708,388.294,502.6042,388.5417,502.5772,388.5417,502.4561,388.9583,502.471,389.375,502.5805,389.7917,502.3641,390.2083,502.6042,390.625,502.6042,390.8172,501.7708,390.4062,500.9375,390.5563,500.1042,390.775,499.2708,390.5952,498.4375,390.625,498.4612,390.625,498.4264,390.2083,498.4995,389.7917,498.5205,389.375,498.6409,388.9583,498.4375,388.5417" style="stroke: #333333; stroke-width: 1.5625;"/><text fill="#FFFFFF" font-family="Segoe Print" font-size="12.5" lengthAdjust="spacingAndGlyphs" textLength="59.375" x="430.7292" y="419.0002">Server UI</text><!--MD5=[76b2fe63132889799217abadb421b88b]
entity Deezer JS SDK--><polygon fill="#474747" points="314.5833,504.1667,314.5833,504.3856,325.3205,503.7351,336.0577,504.368,346.7949,504.583,357.5321,503.4235,368.2692,504.0857,379.0064,503.7224,389.7436,503.7672,400.4808,504.0957,411.2179,503.4465,421.9551,504.7434,432.6923,503.5101,443.4295,503.9607,454.1667,504.1667,454.2241,504.3052,454.7445,504.3832,455.3542,504.6767,455.9302,504.8887,456.5474,505.2002,457.1129,505.3871,457.1897,505.4188,457.5449,506.0541,457.8164,506.6547,458.0631,507.2451,458.1709,507.7779,458.3333,508.3333,458.8162,508.3333,459.0648,519.4128,457.5821,530.4924,459.0401,541.5719,458.0245,552.6514,458.3333,563.7309,458.5046,563.8018,457.9305,564.2544,457.8232,564.9003,457.839,565.5972,457.3414,566.0814,457.1129,566.6772,457.1269,566.7109,456.5687,567.0299,455.9897,567.2988,455.3447,567.4081,454.7941,567.7456,454.1667,567.8975,454.1667,567.3013,443.4295,568.1938,432.6923,568.4686,421.9551,568.3606,411.2179,568.5361,400.4808,567.3943,389.7436,567.2182,379.0064,567.2503,368.2692,567.8362,357.5321,567.6928,346.7949,568.6073,336.0577,567.7156,325.3205,567.5402,314.5833,567.8975,314.6137,567.9708,313.9055,567.4395,313.3358,567.2429,312.9018,567.3735,312.2842,567.061,311.6371,566.6772,311.8727,566.7748,311.2897,566.0451,311.2513,565.5411,311.0942,564.9878,310.5092,564.2574,310.4167,563.7309,310.3168,563.7309,310.5479,552.6514,311.0956,541.5719,310.4123,530.4924,310.8985,519.4128,310.4167,508.3333,310.239,508.2597,310.4435,507.6541,311.0664,507.2217,310.9189,506.4703,311.5562,506.0439,311.6371,505.3871,311.6645,505.4533,312.1907,505.057,312.7686,504.7854,313.4658,504.802,313.9543,504.3147,314.5833,504.1667" style="stroke: #333333; stroke-width: 1.5625;"/><polygon fill="#474747" points="437.5,509.375,437.5,509.448,440.625,509.2311,443.75,509.4421,446.875,509.5138,450,509.1273,453.125,509.375,453.098,509.375,452.9769,511.4583,452.9918,513.5417,453.1013,515.625,452.8849,517.7083,453.125,519.7917,453.125,519.9839,450,519.5728,446.875,519.723,443.75,519.9416,440.625,519.7619,437.5,519.7917,437.5237,519.7917,437.4889,517.7083,437.562,515.625,437.583,513.5417,437.7034,511.4583,437.5,509.375" style="stroke: #333333; stroke-width: 1.5625;"/><polygon fill="#474747" points="435.4167,511.4583,435.4167,511.5313,436.25,511.3145,437.0833,511.5254,437.9167,511.5971,438.75,511.2106,439.5833,511.4583,439.5563,511.4583,439.4352,511.875,439.4502,512.2917,439.5597,512.7083,439.3433,513.125,439.5833,513.5417,439.5833,513.7339,438.75,513.3228,437.9167,513.473,437.0833,513.6916,436.25,513.5119,435.4167,513.5417,435.4404,513.5417,435.4056,513.125,435.4787,512.7083,435.4997,512.2917,435.62,511.875,435.4167,511.4583" style="stroke: #333333; stroke-width: 1.5625;"/><polygon fill="#474747" points="435.4167,515.625,435.4167,515.698,436.25,515.4811,437.0833,515.6921,437.9167,515.7638,438.75,515.3773,439.5833,515.625,439.5563,515.625,439.4352,516.0417,439.4502,516.4583,439.5597,516.875,439.3433,517.2917,439.5833,517.7083,439.5833,517.9006,438.75,517.4895,437.9167,517.6397,437.0833,517.8583,436.25,517.6785,435.4167,517.7083,435.4404,517.7083,435.4056,517.2917,435.4787,516.875,435.4997,516.4583,435.62,516.0417,435.4167,515.625" style="stroke: #333333; stroke-width: 1.5625;"/><text fill="#FFFFFF" font-family="Segoe Print" font-size="12.5" lengthAdjust="spacingAndGlyphs" textLength="95.8333" x="331.25" y="546.0836">Deezer JS SDK</text><!--MD5=[b212c041e8a79140ffe0a4f5057e3b19]
entity Tracks, Playlists, etc.--><polygon fill="#474747" points="297.3958,648.9583,297.3958,649.1773,307.6287,648.5267,317.8615,649.1597,328.0944,649.3747,338.3272,648.2152,348.56,648.8774,358.7929,648.5141,369.0257,648.5589,379.2586,648.8873,389.4914,648.2382,399.7243,649.535,409.9571,648.3018,420.19,648.7523,430.4228,649.4083,440.6556,648.869,450.8885,649.0294,461.1213,648.9251,471.3542,648.9583,471.3779,649.0156,471.9752,649.2791,472.6105,649.6344,473.2111,649.9058,473.8014,650.1525,474.3004,650.1787,474.3821,650.2126,474.6932,650.8296,475.0139,651.4505,474.8013,651.8507,475.4944,652.6259,475.5208,653.125,475.212,653.125,476.0769,664.2045,475.0052,675.284,475.4495,686.3635,476.2933,697.443,475.5208,708.5225,475.5052,708.5161,475.3105,709.1258,475.1413,709.746,474.9221,710.3456,474.5433,710.879,474.3004,711.4688,474.3386,711.561,473.6351,711.5293,473.1597,712.0482,472.6055,712.3769,472.0025,712.5877,471.3542,712.6892,471.3542,713.3278,461.1213,712.186,450.8885,712.0099,440.6556,712.0419,430.4228,712.6279,420.19,712.4845,409.9571,713.399,399.7243,712.5073,389.4914,712.3319,379.2586,712.927,369.0257,711.9946,358.7929,712.1485,348.56,713.3652,338.3272,713.143,328.0944,713.4543,317.8615,712.354,307.6287,713.0217,297.3958,712.6892,297.4743,712.8786,296.7438,712.2936,296.2046,712.1703,295.6448,711.9974,295.1254,711.922,294.4496,711.4688,294.4482,711.4683,294.3539,710.941,293.7838,710.2167,293.5001,709.6111,293.6348,709.1787,293.2292,708.5225,292.4824,708.5225,293.7593,697.443,293.4444,686.3635,292.9501,675.284,292.8607,664.2045,293.2292,653.125,293.3763,653.186,293.3772,652.496,293.9072,652.0251,293.7841,651.2838,294.4035,650.85,294.4496,650.1787,294.5139,650.3341,295.0714,650.0132,295.6343,649.7057,296.3139,649.6796,296.8881,649.3992,297.3958,648.9583" style="stroke: #333333; stroke-width: 1.5625;"/><polygon fill="#474747" points="454.6875,654.1667,454.6875,654.2396,457.8125,654.0228,460.9375,654.2338,464.0625,654.3054,467.1875,653.919,470.3125,654.1667,470.2855,654.1667,470.1644,656.25,470.1793,658.3333,470.2888,660.4167,470.0724,662.5,470.3125,664.5833,470.3125,664.7756,467.1875,664.3645,464.0625,664.5147,460.9375,664.7333,457.8125,664.5535,454.6875,664.5833,454.7112,664.5833,454.6764,662.5,454.7495,660.4167,454.7705,658.3333,454.8909,656.25,454.6875,654.1667" style="stroke: #333333; stroke-width: 1.5625;"/><polygon fill="#474747" points="452.6042,656.25,452.6042,656.323,453.4375,656.1061,454.2708,656.3171,455.1042,656.3888,455.9375,656.0023,456.7708,656.25,456.7438,656.25,456.6227,656.6667,456.6377,657.0833,456.7472,657.5,456.5308,657.9167,456.7708,658.3333,456.7708,658.5256,455.9375,658.1145,455.1042,658.2647,454.2708,658.4833,453.4375,658.3035,452.6042,658.3333,452.6279,658.3333,452.5931,657.9167,452.6662,657.5,452.6872,657.0833,452.8075,656.6667,452.6042,656.25" style="stroke: #333333; stroke-width: 1.5625;"/><polygon fill="#474747" points="452.6042,660.4167,452.6042,660.4896,453.4375,660.2728,454.2708,660.4838,455.1042,660.5554,455.9375,660.169,456.7708,660.4167,456.7438,660.4167,456.6227,660.8333,456.6377,661.25,456.7472,661.6667,456.5308,662.0833,456.7708,662.5,456.7708,662.6922,455.9375,662.2812,455.1042,662.4313,454.2708,662.65,453.4375,662.4702,452.6042,662.5,452.6279,662.5,452.5931,662.0833,452.6662,661.6667,452.6872,661.25,452.8075,660.8333,452.6042,660.4167" style="stroke: #333333; stroke-width: 1.5625;"/><text fill="#FFFFFF" font-family="Segoe Print" font-size="12.5" lengthAdjust="spacingAndGlyphs" textLength="130.2083" x="314.0625" y="690.8752">Tracks, Playlists, etc.</text><!--MD5=[ee7279e4223390711b38aed17cc964c6]
entity You--><polygon fill="#474747" points="301.0417,7.2917,301.0417,7.5106,312.1528,6.8601,323.2639,7.493,334.375,7.708,345.4861,6.5485,356.5972,7.2107,367.7083,7.2917,367.6517,7.1549,368.2466,7.4127,368.8778,7.758,369.3842,7.8021,370.1389,8.4456,370.6546,8.5121,370.4524,8.4283,370.8352,9.075,371.2813,9.748,371.3593,10.2684,371.6528,10.8781,371.875,11.4583,371.8417,11.4583,372.061,22.5378,372.1241,33.6174,372.4851,44.6969,372.574,55.7764,371.875,66.8559,372.0929,66.9461,371.7126,67.479,371.5356,68.096,371.368,68.717,370.6673,69.1171,370.6546,69.8022,370.7448,70.0198,370.026,69.9511,369.547,70.4616,368.8211,70.3756,368.2885,70.7565,367.7083,71.0225,367.7083,71.795,356.5972,70.9718,345.4861,71.1322,334.375,71.3753,323.2639,71.4561,312.1528,71.0185,301.0417,71.0225,301.0798,71.1147,300.3764,70.5948,299.9009,70.6256,299.3467,70.4662,298.7437,70.1888,298.0954,69.8022,298.292,69.8836,297.6963,69.1487,297.398,68.537,297.1638,67.9518,297.1002,67.4373,296.875,66.8559,296.6703,66.8559,297.5848,55.7764,296.693,44.6969,296.5177,33.6174,297.1128,22.5378,296.875,11.4583,296.6611,11.3697,296.9525,10.8001,297.5713,10.3661,297.747,9.7485,298.0869,9.1989,298.0954,8.5121,298.0526,8.4088,298.7271,8.3704,299.3524,8.2133,299.8004,7.6283,300.4397,7.505,301.0417,7.2917" style="stroke: #333333; stroke-width: 1.5625;"/><polygon fill="#474747" points="351.0417,12.5,351.0417,12.573,354.1667,12.3561,357.2917,12.5671,360.4167,12.6388,363.5417,12.2523,366.6667,12.5,366.6397,12.5,366.5186,14.5833,366.5335,16.6667,366.643,18.75,366.4266,20.8333,366.6667,22.9167,366.6667,23.1089,363.5417,22.6978,360.4167,22.848,357.2917,23.0666,354.1667,22.8869,351.0417,22.9167,351.0654,22.9167,351.0306,20.8333,351.1037,18.75,351.1247,16.6667,351.245,14.5833,351.0417,12.5" style="stroke: #333333; stroke-width: 1.5625;"/><polygon fill="#474747" points="348.9583,14.5833,348.9583,14.6563,349.7917,14.4395,350.625,14.6504,351.4583,14.7221,352.2917,14.3356,353.125,14.5833,353.098,14.5833,352.9769,15,352.9918,15.4167,353.1013,15.8333,352.8849,16.25,353.125,16.6667,353.125,16.8589,352.2917,16.4478,351.4583,16.598,350.625,16.8166,349.7917,16.6369,348.9583,16.6667,348.982,16.6667,348.9472,16.25,349.0203,15.8333,349.0414,15.4167,349.1617,15,348.9583,14.5833" style="stroke: #333333; stroke-width: 1.5625;"/><polygon fill="#474747" points="348.9583,18.75,348.9583,18.823,349.7917,18.6061,350.625,18.8171,351.4583,18.8888,352.2917,18.5023,353.125,18.75,353.098,18.75,352.9769,19.1667,352.9918,19.5833,353.1013,20,352.8849,20.4167,353.125,20.8333,353.125,21.0256,352.2917,20.6145,351.4583,20.7647,350.625,20.9833,349.7917,20.8035,348.9583,20.8333,348.982,20.8333,348.9472,20.4167,349.0203,20,349.0414,19.5833,349.1617,19.1667,348.9583,18.75" style="stroke: #333333; stroke-width: 1.5625;"/><text fill="#FFFFFF" font-family="Segoe Print" font-size="12.5" lengthAdjust="spacingAndGlyphs" textLength="22.9167" x="317.7083" y="49.2086">You</text><!--MD5=[6fd0a7b8c838810d4c16a36b09ebef53]
link Emdeez UI to Emdeez Websocket--><path d="M141.7646,236.9792 L141.7646,237.0765 L148.0027,236.7874 L154.2408,237.0687 L160.479,237.1642 L166.7171,236.6489 L172.9552,236.9792 " fill="none" style="stroke: #333333; stroke-width: 3.125;"/><polygon fill="#333333" points="178.3927,236.9792,178.4223,237.0459,176.4593,236.0144,174.67,235.3738,172.8241,234.606,170.7921,233.4195,169.0177,232.8125,168.9986,232.7934,169.7463,233.5411,170.5902,234.385,171.501,235.2958,172.1813,235.9761,173.1844,236.9792,173.3203,237.1151,172.1963,237.6578,171.4692,238.5973,170.7904,239.5852,169.83,240.2914,169.0177,241.1458,169.0273,241.1675,170.8882,240.3024,172.7929,239.5358,174.6764,238.7217,176.6003,237.9983,178.3927,236.9792" style="stroke: #333333; stroke-width: 3.125;"/><!--MD5=[77c491d0b3527a35872cc2a1b77a04df]
link Emdeez Websocket to Websocket--><path d="M237.8646,273.5948 L237.9468,273.6468 L236.562,275.296 L235.6593,277.25 L234.5997,279.1047 L233.0237,280.633 L232.1624,282.6132 L232.1314,282.5949 L230.8774,284.4011 L229.7795,286.2995 L228.7903,288.2621 L227.4269,290.0037 L226.5875,292.0547 L226.8129,292.1767 L225.2837,293.8513 L224.4126,295.8821 L223.6219,297.9563 L222.3639,299.7777 L221.3517,301.7321 L221.3802,301.7458 L220.4014,303.6709 L219.5521,305.6585 L218.6404,307.6159 L217.848,309.6308 L216.6667,311.4583 L216.9535,311.5778 L216.057,313.7397 L214.9756,315.8246 L214.165,318.0223 L213.3671,320.2253 L212.1671,322.2608 L211.8534,322.1464 L211.6449,324.6096 L210.4035,326.6963 L209.9473,329.0692 L208.6826,331.1473 L208.0806,333.4671 L208.0504,333.4573 L207.6722,335.8403 L206.5892,337.9948 L205.922,340.2841 L205.2898,342.5848 L204.4057,344.8038 L204.5907,344.8578 L203.7511,347.0421 L203.2276,349.3186 L202.1926,351.4459 L201.9205,353.7958 L201.1411,355.9977 L201.3865,356.0627 L200.7689,358.2059 L200.2732,360.3814 L199.2115,362.4069 L198.5646,364.5423 L198.2853,366.7752 L198.0058,366.7073 L197.7692,368.7863 L197.2175,370.7889 L197.1228,372.9023 L196.248,374.8264 L195.8369,376.863 L195.6817,376.8294 L195.204,380.288 L194.0629,383.6029 L193.3936,387.02 L193.186,390.537 L192.1563,393.876 " fill="none" style="stroke: #333333; stroke-width: 3.125;"/><polygon fill="#333333" points="191.1052,399.275,191.165,399.3168,192.1636,397.5113,193.5128,395.9511,194.7479,394.311,195.6075,392.4083,196.9868,390.8691,196.9717,390.8467,195.9268,391.405,194.9579,392.0761,194.0418,392.8256,192.9437,393.3049,192.1006,394.1627,192.26,394.2701,191.2604,393.0631,190.7262,392.1698,190.2488,391.3148,189.4411,390.2371,188.807,389.2765,188.8301,389.2818,189.2559,391.2737,189.7867,393.2898,190.2669,395.2942,190.8438,397.3209,191.1052,399.275" style="stroke: #333333; stroke-width: 3.125;"/><polygon fill="#333333" points="240.8708,269.0417,240.9101,269.1032,239.0647,270.0259,237.4497,271.309,235.7597,272.4747,233.8228,273.2545,232.2276,274.5686,232.2222,274.5422,233.3526,274.1874,234.5102,273.9658,235.6867,273.8369,236.798,273.3888,238.0007,273.3878,238.189,273.4263,238.0224,274.4986,238.4057,275.6833,238.8561,276.8817,238.9161,278.0003,239.1815,279.1608,239.2048,279.1647,239.5084,277.1352,239.9184,275.1234,240.277,273.103,240.7336,271.099,240.8708,269.0417" style="stroke: #333333; stroke-width: 3.125;"/><!--MD5=[2997c0015042e0a868cc81133b4191e7]
reverse link JS Websocket to Server UI--><path d="M378.6385,408.8542 L378.6385,408.9515 L384.8471,408.6624 L391.0556,408.9437 L397.2642,409.0392 L403.4727,408.5239 L409.6813,408.8542 " fill="none" style="stroke: #333333; stroke-width: 3.125;"/><polygon fill="#333333" points="373.2281,408.8542,373.2578,408.9209,375.0447,409.556,377.0054,410.5822,378.9095,411.481,380.6275,411.9611,382.6031,413.0208,382.584,413.0018,381.6651,412.0828,380.8423,411.26,380.0864,410.5041,379.1,409.5178,378.4365,408.8542,378.5724,408.9901,379.115,407.8661,380.0546,407.1389,381.0425,406.4602,381.7487,405.4998,382.6031,404.6875,382.6127,404.7092,380.7236,405.5107,378.8783,406.4108,377.0118,407.2634,375.1857,408.2067,373.2281,408.8542" style="stroke: #333333; stroke-width: 3.125;"/><!--MD5=[5c5fa1b1e310468f4e44b692af817fad]
link Websocket to JS Websocket--><path d="M204.35,408.8542 L204.35,408.9515 L209.4496,408.6624 L214.5492,408.9437 L219.6488,409.0392 L224.7483,408.5239 L229.8479,408.8542 " fill="none" style="stroke: #333333; stroke-width: 3.125;"/><polygon fill="#333333" points="235.1396,408.8542,235.1692,408.9209,233.2062,407.8894,231.4168,407.2488,229.5709,406.481,227.539,405.2945,225.7646,404.6875,225.7455,404.6684,226.4932,405.4161,227.3371,406.26,228.2478,407.1708,228.9282,407.8511,229.9313,408.8542,230.0672,408.9901,228.9432,409.5328,228.216,410.4723,227.5373,411.4602,226.5769,412.1664,225.7646,413.0208,225.7742,413.0425,227.6351,412.1774,229.5398,411.4108,231.4233,410.5967,233.3472,409.8733,235.1396,408.8542" style="stroke: #333333; stroke-width: 3.125;"/><polygon fill="#333333" points="198.9823,408.8542,199.0119,408.9209,200.7989,409.556,202.7595,410.5822,204.6637,411.481,206.3817,411.9611,208.3573,413.0208,208.3382,413.0018,207.4192,412.0828,206.5965,411.26,205.8406,410.5041,204.8542,409.5178,204.1906,408.8542,204.3266,408.9901,204.8692,407.8661,205.8087,407.1389,206.7967,406.4602,207.5029,405.4998,208.3573,404.6875,208.3669,404.7092,206.4778,405.5107,204.6325,406.4108,202.766,407.2634,200.9399,408.2067,198.9823,408.8542" style="stroke: #333333; stroke-width: 3.125;"/><!--MD5=[85f4b1ea007ed0791127c97d7f29482c]
link Server UI to Deezer JS SDK--><path d="M445.5406,440.7948 L445.7854,440.9539 L439.6242,448.8412 L434.8979,457.661 L429.7043,466.1772 L422.9742,473.6947 L418.2805,482.5358 L412.4404,490.6318 L407.5031,499.3146 " fill="none" style="stroke: #333333; stroke-width: 3.125;"/><polygon fill="#333333" points="404.5094,503.9188,404.5491,503.9799,406.1516,502.6803,407.9872,501.7394,409.7468,500.6817,411.2569,499.2397,413.1125,498.3296,413.1069,498.3032,411.9289,498.4293,410.7791,498.6883,409.649,499.0399,408.4512,499.0727,407.3481,499.552,407.5362,499.5919,406.8896,498.3538,406.792,497.232,406.7614,496.1245,406.3411,494.9343,406.1257,493.7877,406.1491,493.7914,405.7915,495.8121,405.5404,497.8499,405.2379,499.8794,405.0335,501.9246,404.5094,503.9188" style="stroke: #333333; stroke-width: 3.125;"/><!--MD5=[7793afbc26d313b36b75c4eb62c3c619]
link JS Websocket to Deezer JS SDK--><path d="M326.9458,445.3958 L327.1915,445.5535 L332.2207,454.0606 L338.6902,463.4919 L344.6906,472.6222 L349.1487,480.7628 L355.651,490.2151 L361.501,499.249 " fill="none" style="stroke: #333333; stroke-width: 3.125;"/><polygon fill="#333333" points="364.4979,503.9188,364.5701,503.9298,364.0447,501.8688,363.9421,499.8727,363.7019,497.8554,363.0088,495.7687,362.9426,493.7781,362.9163,493.7723,362.5465,494.8979,362.3097,496.0525,362.1652,497.2272,361.7024,498.3324,361.6855,499.535,361.7265,499.7228,360.4875,499.0698,359.3681,498.9651,358.2634,498.9273,357.0737,498.5002,355.9286,498.2779,355.9417,498.2977,357.6364,499.3968,359.3904,500.586,361.1159,501.7318,362.8959,502.9604,364.4979,503.9188" style="stroke: #333333; stroke-width: 3.125;"/><polygon fill="#333333" points="323.9938,440.7948,324.0659,440.8059,324.1626,442.8011,324.6822,444.8612,325.0641,446.9002,324.9931,448.8698,325.549,450.9354,325.5227,450.9297,325.6558,449.7525,325.9218,448.6043,326.2802,447.4763,326.3202,446.2787,326.8061,445.1785,326.8471,445.3663,327.9108,445.2161,329.0942,445.6143,330.2923,446.0793,331.4053,446.1551,332.563,446.4356,332.5761,446.4554,330.8431,445.2982,329.1694,444.2311,327.4671,443.1205,325.8194,442.0928,323.9938,440.7948" style="stroke: #333333; stroke-width: 3.125;"/><!--MD5=[fed094283dbdb04039e35874b9f7ec4a]
link Deezer JS SDK to Tracks, Playlists, etc.--><path d="M384.375,567.9448 L384.6669,567.9448 L383.7996,578.7118 L384.6435,589.4788 L384.9301,600.2458 L383.3842,611.0128 L384.2671,621.7798 L383.7826,632.5468 L384.375,643.3138 " fill="none" style="stroke: #333333; stroke-width: 3.125;"/><polygon fill="#333333" points="384.375,648.7824,384.4417,648.812,385.0769,646.849,386.103,645.0597,387.0018,643.2138,387.482,641.1818,388.5417,639.4074,388.5226,639.3883,387.6036,640.136,386.7808,640.9799,386.0249,641.8907,385.0386,642.571,384.375,643.5741,384.5109,643.71,383.3869,642.586,382.6598,641.8588,381.9811,641.1801,381.0206,640.2197,380.2083,639.4074,380.23,639.417,381.0315,641.2779,381.9316,643.1826,382.7842,645.0661,383.7275,646.99,384.375,648.7824" style="stroke: #333333; stroke-width: 3.125;"/><!--MD5=[1337d00e896378e812f99037b528b49e]
link You to Emdeez UI--><path d="M296.8083,58.2177 L296.8532,58.3041 L293.7826,59.5722 L290.9748,61.3465 L288.0815,62.956 L284.9067,64.0233 L282.1215,65.8412 L282.1044,65.8095 L278.7967,67.4138 L275.5752,69.1776 L272.4137,71.0523 L269.0456,72.5448 L265.9669,74.5726 L266.093,74.7957 L262.378,76.2671 L259.0314,78.3899 L255.7297,80.5921 L252.1665,82.3319 L248.7408,84.315 L248.757,84.3421 L245.153,86.4335 L241.6227,88.6484 L238.0569,90.8038 L234.5587,93.0729 L230.8398,94.9711 L231.0038,95.235 L229.1899,96.3663 L227.2702,97.3274 L225.5053,98.5376 L223.7477,99.7596 L221.7602,100.6115 L221.58,100.3304 L220.1097,102.0424 L218.0462,102.8289 L216.4337,104.319 L214.3567,105.0845 L212.6605,106.4439 L212.6429,106.4175 L211.0361,107.9326 L209.0199,108.8301 L207.2453,110.092 L205.4909,111.3845 L203.5903,112.4563 L203.6994,112.6151 L201.791,113.6908 L200.0691,115.0379 L198.0455,115.9459 L196.472,117.5088 L194.5992,118.6364 L194.7468,118.8428 L192.9463,120.0709 L191.2192,121.4015 L189.1516,122.2559 L187.3336,123.4593 L185.7367,124.9721 L185.5646,124.7415 L183.9835,126.2461 L182.2086,127.4909 L180.7148,129.1125 L178.7409,130.0906 L177.0524,131.4513 L176.9546,131.3262 L175.4262,132.8567 L173.4797,133.8523 L171.8305,135.2283 L170.4722,136.9765 L168.5959,138.0619 L168.724,138.2176 L167.1761,139.6704 L165.2295,140.6388 L163.7822,142.2139 L162.2262,143.6568 L160.4167,144.7917 L160.2691,144.6302 L157.5217,147.3773 L154.726,150.0715 L152.0253,152.8696 L148.9554,155.2638 L146.0917,157.8836 L146.2458,158.0324 L143.1678,160.5419 L140.3871,163.3385 L138.0407,166.5547 L134.8947,168.9985 L132.3939,172.0655 L132.5708,172.2211 L129.9201,175.0241 L127.2095,177.7744 L124.634,180.6436 L122.3709,183.7873 L119.6657,186.5425 L119.5584,186.4548 L117.5948,189.5113 L114.9012,191.9715 L113.0377,195.1097 L110.7068,197.8662 L108.25,200.5198 " fill="none" style="stroke: #333333; stroke-width: 3.125; stroke-dasharray: 7.0,7.0;"/><polygon fill="#333333" points="104.7385,205.0031,104.7728,205.0676,106.4833,203.9139,108.3945,203.138,110.2404,202.2391,111.8714,200.9355,113.7998,200.1921,113.7965,200.1653,112.612,200.1873,111.4439,200.3443,110.2872,200.5951,109.0912,200.5225,107.9502,200.9029,108.1411,200.9261,107.5908,199.7066,107.5978,198.5548,107.6727,197.4113,107.352,196.2197,107.2394,195.0534,107.2624,195.0592,106.7285,197.0406,106.2992,199.0484,105.8194,201.0435,105.436,203.0628,104.7385,205.0031" style="stroke: #333333; stroke-width: 3.125;"/><text fill="#FFFFFF" font-family="Segoe Print" font-size="12.5" lengthAdjust="spacingAndGlyphs" textLength="18.75" x="226.0417" y="124.2086">use</text><!--MD5=[c1f0f483265769367cad9f12802f5aab]
link You to Server UI--><path d="M345.4521,71.1375 L345.727,71.2356 L348.3739,80.6482 L352.6325,90.6359 L356.3662,100.4364 L358.374,109.6208 L362.6693,119.6217 L365.6769,129.163 L369.1969,138.8871 L373.0731,148.7385 L375.7217,158.1516 L380.814,168.437 L382.7292,177.5883 L386.7587,187.4944 L391.0462,197.4925 L393.8328,206.9548 L397.498,216.7309 L400.8307,226.3882 L404.5698,236.1905 L408.1129,245.9229 L412.03,255.7888 L415.6054,265.5328 L419.0799,275.2407 L421.9882,284.7466 L425.7253,294.5482 L429.5013,304.3638 L431.1032,313.4033 L436.3978,323.7609 L438.5862,333.0097 L443.1361,343.1015 L445.2541,352.3253 L449.2758,362.2285 L452.8292,371.9646 " fill="none" style="stroke: #333333; stroke-width: 3.125; stroke-dasharray: 7.0,7.0;"/><polygon fill="#333333" points="454.624,376.9917,454.6967,376.9972,454.6353,374.9348,455.0004,372.9047,455.2267,370.8641,454.9961,368.789,455.3979,366.7617,455.3735,366.7501,454.7592,367.7631,454.2679,368.8345,453.862,369.9463,453.1616,370.9185,452.8737,372.0862,452.9561,372.2599,451.7151,371.3836,450.7145,371.0145,449.7432,370.7073,448.6013,370.04,447.5492,369.5621,447.5663,369.5784,448.9561,371.0403,450.424,372.5767,451.8542,374.0771,453.3563,375.646,454.624,376.9917" style="stroke: #333333; stroke-width: 3.125;"/><text fill="#FFFFFF" font-family="Segoe Print" font-size="12.5" lengthAdjust="spacingAndGlyphs" textLength="138.5417" x="430.2083" y="241.9169">Deezer authentication</text><!--MD5=[21745aa5e8a295ea21535b596b70d6c2]
@startuml
!include https://raw.githubusercontent.com/bschwarz/puml-themes/master/themes/sketchy/puml-theme-sketchy.puml

package "Emacs" {
  [Emdeez UI] -> [Emdeez Websocket]
}

node "Apache HTTP Server (httpd)"{
  [Emdeez Websocket] <- -> Websocket
  [JS Websocket] <- [Server UI]
  Websocket <-> [JS Websocket]
  [Server UI] - -> [Deezer JS SDK]
  [JS Websocket] <- -> [Deezer JS SDK]
}

cloud {
[Tracks, Playlists, etc.]
}

[Deezer JS SDK] - -> [Tracks, Playlists, etc.]
[You] ..> [Emdeez UI] : use
[You] ..> [Server UI] : Deezer authentication
@enduml

@startuml



skinparam backgroundColor transparent
skinparam handwritten true
skinparam shadowing false







skinparam defaultFontName       "Segoe Print"
skinparam defaultFontSize       12
skinparam dpi                   100
skinparam shadowing             false
skinparam roundcorner           8
skinparam ParticipantPadding    40
skinparam BoxPadding            40
skinparam Padding               5
skinparam ArrowColor            #555555
skinparam stereotype {
    CBackgroundColor #666666
    CBorderColor #4d4d4d
    ABackgroundColor #3eb058
    ABorderColor #24963e
    IBackgroundColor #e04958
    IBorderColor #c6303e
    EBackgroundColor #ffc720
    EBorderColor #e6ae06
    NBackgroundColor #2eabbf
    NBorderColor #1592a6
}
skinparam title {
	FontColor	                 #ffffff
	BorderColor	                 #4d4d4d
	FontSize	    	         20
	BorderRoundCorner            8
	BorderThickness 	         1
	BackgroundColor              #666666-#555555
}

skinparam legend {
	BackgroundColor #555555
	BorderColor #4d4d4d
	FontColor #ffffff
}

skinparam swimlane {
	BorderColor #17a2b8
	BorderThickness 2
	TitleBackgroundColor  #666666-#555555
	TitleFontColor #ffffff
}


skinparam activity {
		FontColor #ffffff
	BorderColor #333333
	BackgroundColor #474747
	BarColor #28a745
	StartColor #17a2b8
	EndColor #17a2b8
	DiamondBackgroundColor #666666
  	DiamondBorderColor #4d4d4d
  	DiamondFontColor #ffffff
}


skinparam participant {
		FontColor #ffffff
	BorderColor #333333
	BackgroundColor #474747
	ParticipantBorderThickness 2
}


skinparam actor {
		FontColor #ffffff
	BorderColor #333333
	BackgroundColor #474747
}


skinparam arrow {
	Thickness 3
	Color #333333
	FontColor #ffffff
}


skinparam sequence {
	BorderColor #333333
	TitleFontColor #333333
	BackgroundColor transparent
	StartColor #333333
	EndColor #333333
	BoxBackgroundColor transparent
	BoxBorderColor #555555
	BoxFontColor $DARk
	LifeLineBorderColor #555555
	LifeLineBorderThickness 2
	LifeLineBackgroundColor #4d4d4d
	GroupBorderColor #555555
	GroupFontColor #555555
	GroupHeaderFontColor #17a2b8
	GroupBackgroundColor #555555
	GroupHeaderBackgroundColor transparent
	DividerBackgroundColor #555555
    DividerBorderColor #555555
    DividerBorderThickness 2
    DividerFontColor #ffffff
	ReferenceBackgroundColor transparent
	ReferenceBorderColor #555555
	ReferenceFontColor #555555
	ReferenceHeaderFontColor #17a2b8
	ReferenceHeaderBackgroundColor #555555
}


skinparam partition {
	BorderColor #333333
	FontColor #333333
	BackgroundColor transparent
}


skinparam collections {
		FontColor #ffffff
	BorderColor #333333
	BackgroundColor #474747
}


skinparam control {
		FontColor #ffffff
	BorderColor #333333
	BackgroundColor #474747
}


skinparam entity {
		FontColor #ffffff
	BorderColor #333333
	BackgroundColor #474747
}


skinparam boundary {
		FontColor #ffffff
	BorderColor #333333
	BackgroundColor #474747
}


skinparam agent {
	BackgroundColor #ffc107
	BorderColor #ffc720
	FontColor #555555
}


skinparam note {
	BorderThickness 1
	BackgroundColor #17a2b8
	BorderColor #1592a6
	FontColor #ffffff
}


skinparam artifact {
	BackgroundColor #555555
	BorderColor #4d4d4d
	FontColor #ffffff
}


skinparam component {
		FontColor #ffffff
	BorderColor #333333
	BackgroundColor #474747
}


skinparam interface {
	BackgroundColor  #c6303e
	BorderColor  #dc3545
	FontColor #555555
}


skinparam storage {
	BackgroundColor #ffc107
  	BorderColor #e6ae06
	FontColor #ffffff
}


skinparam node {
	BackgroundColor  #555555
	BorderColor #ffffff
	FontColor #ffffff
}


skinparam cloud {
	BackgroundColor #F2FCFE-#eeeeee
	BorderColor #F2FCFE
	FontColor #555555
}


skinparam database {
		FontColor #ffffff
	BorderColor #333333
	BackgroundColor #474747
}


skinparam class {
		FontColor #ffffff
	BorderColor #333333
	BackgroundColor #474747
	FontColor #ffffff
	HeaderBackgroundColor #474747
	StereotypeFontColor #555555
	BorderThickness 1
	AttributeFontColor #ffffff
	AttributeFontSize 11
}


skinparam object {
		FontColor #ffffff
	BorderColor #333333
	BackgroundColor #474747
	StereotypeFontColor #555555
	BorderThickness 1
	AttributeFontColor #ffffff
	AttributeFontSize 11
}


skinparam usecase {
		FontColor #ffffff
	BorderColor #333333
	BackgroundColor #474747
	BorderThickness 2
	StereotypeFontColor #333333
}


skinparam rectangle {
		FontColor #ffffff
	BorderColor #333333
	BackgroundColor #474747
	BackgroundColor #666666
	BorderThickness 2
	StereotypeFontColor #333333
}


skinparam package {
	BackgroundColor #555555
  	BorderColor #333333
	FontColor #333333
	BorderThickness 2
}


skinparam folder {
	BackgroundColor #666666
  	BorderColor #ffc107
	FontColor #ffc107
	BorderThickness 2
}


skinparam frame {
	BackgroundColor #666666
  	BorderColor #17a2b8
	FontColor #17a2b8
	BorderThickness 2
}


skinparam state {
		FontColor #ffffff
	BorderColor #333333
	BackgroundColor #474747
	StartColor #17a2b8
	EndColor #17a2b8
	AttributeFontColor #ffffff
	AttributeFontSize 11
}


skinparam queue {
		FontColor #ffffff
	BorderColor #333333
	BackgroundColor #474747
}


skinparam card {
	BackgroundColor #17a2b8
	BorderColor #1592a6
	FontColor #ffffff
}


skinparam file {
	BackgroundColor #4d4d4d
	BorderColor #ffffff
	FontColor #ffffff
}



package "Emacs" {
  [Emdeez UI] -> [Emdeez Websocket]
}

node "Apache HTTP Server (httpd)"{
  [Emdeez Websocket] <- -> Websocket
  [JS Websocket] <- [Server UI]
  Websocket <-> [JS Websocket]
  [Server UI] - -> [Deezer JS SDK]
  [JS Websocket] <- -> [Deezer JS SDK]
}

cloud {
[Tracks, Playlists, etc.]
}

[Deezer JS SDK] - -> [Tracks, Playlists, etc.]
[You] ..> [Emdeez UI] : use
[You] ..> [Server UI] : Deezer authentication
@enduml

PlantUML version 1.2020.19(Mon Oct 12 17:10:01 CEST 2020)
(GPL source distribution)
Java Runtime: OpenJDK Runtime Environment
JVM: OpenJDK 64-Bit Server VM
Default Encoding: UTF-8
Language: fr
Country: FR
--></g></svg>